<svg width="150" height="135" viewBox="0 0 150 135" fill="none" xmlns="http://www.w3.org/2000/svg">
<path d="M63.375 11.2838C67.7938 11.2838 70.3125 15.2438 70.3125 19.2206V43.5938H64.7187C63.6309 41.1735 61.6417 39.1691 59.0919 37.9241C56.5422 36.6791 53.5907 36.271 50.7432 36.7697C47.8958 37.2684 45.3297 38.6428 43.4848 40.6575C41.6399 42.6723 40.6309 45.2017 40.6309 47.8125C40.6309 50.4233 41.6399 52.9528 43.4848 54.9675C45.3297 56.9822 47.8958 58.3566 50.7432 58.8553C53.5907 59.354 56.5422 58.9459 59.0919 57.7009C61.6417 56.4559 63.6309 54.4515 64.7187 52.0313H70.3125V113.333C70.3125 116.685 68.7375 120.021 65.4188 121.545C62.4094 122.964 59.0659 123.712 55.6687 123.728C46.2312 123.728 39.2125 119.43 34.6938 114.345C31.5643 110.836 29.3821 106.721 28.3188 102.324C25.4001 101.549 22.697 100.226 20.3875 98.4431C15.95 95.0062 12.5 89.4937 12.5 81.3712C12.5 77.1244 12.8375 73.4231 13.6875 70.3125H40C44.2375 70.3125 47.75 73.125 48.3438 76.7869C45.6651 77.7842 43.4549 79.5884 42.0914 81.8908C40.7279 84.1931 40.2959 86.8503 40.8693 89.4077C41.4427 91.9651 42.9858 94.2636 45.2347 95.9099C47.4835 97.5561 50.2982 98.4478 53.1969 98.4322C56.0957 98.4166 58.8983 97.4948 61.1251 95.8245C63.352 94.1541 64.8645 91.8392 65.4039 89.2758C65.9434 86.7125 65.4761 84.06 64.0821 81.7726C62.6882 79.4851 60.4542 77.7047 57.7625 76.7363C57.4342 72.6982 55.4203 68.9216 52.1254 66.1648C48.8305 63.4081 44.4987 61.8756 40 61.875H19C19.9359 61.1788 20.9777 60.6068 22.0938 60.1763C21.4495 58.1094 21.0761 55.9818 20.9813 53.8369C20.775 49.7025 21.4625 45.3994 22.825 41.5688C24.175 37.8 26.3125 34.1269 29.3125 31.59C31.1944 29.9396 33.5785 28.8296 36.1625 28.4006C37.4062 23.6756 40.575 19.7719 44.6188 16.9425C49.8125 13.2975 56.6187 11.2838 63.3688 11.2838H63.375ZM79.6875 95.625H90C94.7242 95.625 99.2549 93.936 102.595 90.9296C105.936 87.9231 107.812 83.8455 107.812 79.5938V69.4969C110.502 68.5178 112.729 66.7275 114.112 64.4327C115.495 62.138 115.949 59.4816 115.395 56.9189C114.841 54.3562 113.314 52.0467 111.075 50.3863C108.836 48.7259 106.026 47.8179 103.125 47.8179C100.224 47.8179 97.4136 48.7259 95.175 50.3863C92.9365 52.0467 91.4093 54.3562 90.8552 56.9189C90.3011 59.4816 90.7545 62.138 92.1379 64.4327C93.5212 66.7275 95.7483 68.5178 98.4375 69.4969V79.5938C98.4375 81.6077 97.5486 83.5392 95.9662 84.9633C94.3839 86.3875 92.2378 87.1875 90 87.1875H79.6875V19.2206C79.6875 15.2438 82.2062 11.2838 86.625 11.2838C93.3875 11.2838 100.188 13.2975 105.381 16.9425C109.425 19.7719 112.594 23.6813 113.838 28.4006C116.463 28.7944 118.8 29.9981 120.688 31.59C123.688 34.1269 125.825 37.7944 127.175 41.5688C128.537 45.3994 129.225 49.7025 129.019 53.8369C128.912 55.9519 128.569 58.1119 127.906 60.1763L128.319 60.345C130.631 61.3238 132.506 62.8594 133.906 64.9012C136.562 68.7544 137.5 74.3006 137.5 81.3712C137.5 89.4994 134.05 95.0175 129.613 98.4431C127.301 100.227 124.596 101.55 121.675 102.324C120.613 106.721 118.433 110.835 115.306 114.345C110.787 119.43 103.769 123.728 94.325 123.728C90.9284 123.714 87.5849 122.967 84.575 121.551C81.2625 120.021 79.6875 116.685 79.6875 113.333V95.625ZM50 47.8125C50 47.0666 50.3292 46.3512 50.9153 45.8238C51.5013 45.2963 52.2962 45 53.125 45C53.9538 45 54.7487 45.2963 55.3347 45.8238C55.9208 46.3512 56.25 47.0666 56.25 47.8125C56.25 48.5584 55.9208 49.2738 55.3347 49.8012C54.7487 50.3287 53.9538 50.625 53.125 50.625C52.2962 50.625 51.5013 50.3287 50.9153 49.8012C50.3292 49.2738 50 48.5584 50 47.8125ZM53.125 84.375C52.2962 84.375 51.5013 84.6713 50.9153 85.1988C50.3292 85.7262 50 86.4416 50 87.1875C50 87.9334 50.3292 88.6488 50.9153 89.1762C51.5013 89.7037 52.2962 90 53.125 90C53.9538 90 54.7487 89.7037 55.3347 89.1762C55.9208 88.6488 56.25 87.9334 56.25 87.1875C56.25 86.4416 55.9208 85.7262 55.3347 85.1988C54.7487 84.6713 53.9538 84.375 53.125 84.375ZM100 59.0625C100 59.8084 100.329 60.5238 100.915 61.0512C101.501 61.5787 102.296 61.875 103.125 61.875C103.954 61.875 104.749 61.5787 105.335 61.0512C105.921 60.5238 106.25 59.8084 106.25 59.0625C106.25 58.3166 105.921 57.6012 105.335 57.0738C104.749 56.5463 103.954 56.25 103.125 56.25C102.296 56.25 101.501 56.5463 100.915 57.0738C100.329 57.6012 100 58.3166 100 59.0625Z" fill="#F8F8F8" fill-opacity="0.5"/>
</svg>
