<svg width="256" height="263" viewBox="0 0 256 263" fill="none" xmlns="http://www.w3.org/2000/svg">
<path d="M247.456 135.405C247.457 124.534 244.464 113.886 238.826 104.698C233.187 95.5096 225.135 88.159 215.604 83.4999V73.8575C215.597 63.283 212.286 52.9917 206.163 44.5067C200.039 36.0217 191.427 29.7938 181.602 26.7446C171.776 23.6955 161.26 23.9872 151.608 27.5764C141.956 31.1657 133.681 37.8619 128.009 46.674C122.337 37.8619 114.063 31.1657 104.411 27.5764C94.7589 23.9872 84.2421 23.6955 74.4167 26.7446C64.5914 29.7938 55.9796 36.0217 49.8559 44.5067C43.7321 52.9917 40.4218 63.283 40.4148 73.8575V83.4999C30.8823 88.1579 22.8281 95.508 17.1884 104.696C11.5486 113.884 8.55476 124.533 8.55476 135.405C8.55476 146.277 11.5486 156.926 17.1884 166.114C22.8281 175.302 30.8823 182.652 40.4148 187.31V188.746C40.4218 199.321 43.7321 209.612 49.8559 218.097C55.9796 226.582 64.5914 232.81 74.4167 235.859C84.2421 238.908 94.7589 238.617 104.411 235.027C114.063 231.438 122.337 224.742 128.009 215.93C133.681 224.742 141.956 231.438 151.608 235.027C161.26 238.617 171.776 238.908 181.602 235.859C191.427 232.81 200.039 226.582 206.163 218.097C212.286 209.612 215.597 199.321 215.604 188.746V187.31C225.127 182.641 233.173 175.288 238.81 166.102C244.447 156.917 247.445 146.274 247.456 135.405ZM88.1936 221.572C80.3349 221.567 72.7554 218.568 66.9123 213.153C61.0693 207.737 57.3751 200.287 56.5401 192.234C59.1082 192.651 61.7044 192.856 64.3042 192.849H72.2673C74.3792 192.849 76.4047 191.985 77.8981 190.446C79.3915 188.907 80.2304 186.819 80.2304 184.643C80.2304 182.467 79.3915 180.379 77.8981 178.84C76.4047 177.301 74.3792 176.437 72.2673 176.437H64.3042C54.9208 176.42 45.8446 172.989 38.6768 166.749C31.509 160.508 26.7102 151.859 25.127 142.328C23.5439 132.797 25.2781 122.995 30.0238 114.653C34.7695 106.311 42.2216 99.9644 51.0654 96.7327C52.6129 96.1452 53.9484 95.0828 54.8917 93.6888C55.8351 92.2948 56.3409 90.6362 56.341 88.9366V73.8575C56.341 65.1517 59.6969 56.8024 65.6704 50.6465C71.6439 44.4905 79.7457 41.0322 88.1936 41.0322C96.6414 41.0322 104.743 44.4905 110.717 50.6465C116.69 56.8024 120.046 65.1517 120.046 73.8575V152.125C111.328 143.972 99.9667 139.471 88.1936 139.508C86.0816 139.508 84.0562 140.373 82.5628 141.912C81.0694 143.451 80.2304 145.538 80.2304 147.715C80.2304 149.891 81.0694 151.978 82.5628 153.517C84.0562 155.056 86.0816 155.921 88.1936 155.921C96.6414 155.921 104.743 159.379 110.717 165.535C116.69 171.691 120.046 180.04 120.046 188.746C120.046 197.452 116.69 205.801 110.717 211.957C104.743 218.113 96.6414 221.572 88.1936 221.572ZM191.714 176.437H183.751C181.639 176.437 179.614 177.301 178.12 178.84C176.627 180.379 175.788 182.467 175.788 184.643C175.788 186.819 176.627 188.907 178.12 190.446C179.614 191.985 181.639 192.849 183.751 192.849H191.714C194.314 192.856 196.91 192.651 199.478 192.234C198.824 198.542 196.41 204.52 192.528 209.444C188.646 214.368 183.463 218.028 177.605 219.98C171.748 221.931 165.466 222.092 159.522 220.442C153.578 218.792 148.224 215.402 144.11 210.682C139.996 205.963 137.298 200.115 136.341 193.848C135.384 187.581 136.21 181.162 138.719 175.369C141.228 169.575 145.312 164.655 150.478 161.203C155.643 157.752 161.669 155.917 167.825 155.921C169.937 155.921 171.962 155.056 173.456 153.517C174.949 151.978 175.788 149.891 175.788 147.715C175.788 145.538 174.949 143.451 173.456 141.912C171.962 140.373 169.937 139.508 167.825 139.508C156.052 139.471 144.69 143.972 135.972 152.125V73.8575C135.972 65.1517 139.328 56.8024 145.302 50.6465C151.275 44.4905 159.377 41.0322 167.825 41.0322C176.273 41.0322 184.375 44.4905 190.348 50.6465C196.322 56.8024 199.677 65.1517 199.677 73.8575V88.9366C199.678 90.6362 200.183 92.2948 201.127 93.6888C202.07 95.0828 203.406 96.1452 204.953 96.7327C213.797 99.9644 221.249 106.311 225.995 114.653C230.74 122.995 232.475 132.797 230.891 142.328C229.308 151.859 224.509 160.508 217.342 166.749C210.174 172.989 201.098 176.42 191.714 176.437ZM60.3226 131.302C58.2106 131.302 56.1852 130.437 54.6918 128.898C53.1984 127.359 52.3595 125.272 52.3595 123.096C52.3595 120.919 53.1984 118.832 54.6918 117.293C56.1852 115.754 58.2106 114.889 60.3226 114.889C65.5944 114.862 70.6429 112.692 74.3706 108.85C78.0984 105.009 80.2043 99.8062 80.2304 94.3733V86.167C80.2304 83.9906 81.0694 81.9032 82.5628 80.3643C84.0562 78.8253 86.0816 77.9607 88.1936 77.9607C90.3055 77.9607 92.331 78.8253 93.8243 80.3643C95.3177 81.9032 96.1567 83.9906 96.1567 86.167V94.3733C96.1567 104.167 92.3813 113.56 85.6611 120.486C78.9409 127.411 69.8264 131.302 60.3226 131.302ZM203.659 123.096C203.659 125.272 202.82 127.359 201.327 128.898C199.833 130.437 197.808 131.302 195.696 131.302C186.192 131.302 177.078 127.411 170.357 120.486C163.637 113.56 159.862 104.167 159.862 94.3733V86.167C159.862 83.9906 160.701 81.9032 162.194 80.3643C163.687 78.8253 165.713 77.9607 167.825 77.9607C169.937 77.9607 171.962 78.8253 173.456 80.3643C174.949 81.9032 175.788 83.9906 175.788 86.167V94.3733C175.814 99.8062 177.92 105.009 181.648 108.85C185.376 112.692 190.424 114.862 195.696 114.889C197.808 114.889 199.833 115.754 201.327 117.293C202.82 118.832 203.659 120.919 203.659 123.096Z" fill="url(#paint0_linear_107_164)" fill-opacity="0.5"/>
<defs>
<linearGradient id="paint0_linear_107_164" x1="128.006" y1="24.6533" x2="128.006" y2="237.95" gradientUnits="userSpaceOnUse">
<stop offset="0.28125" stop-color="#F8F8F8"/>
<stop offset="1" stop-color="#F8F8F8" stop-opacity="0"/>
</linearGradient>
</defs>
</svg>
