<svg width="118" height="121" viewBox="0 0 118 121" fill="none" xmlns="http://www.w3.org/2000/svg">
<path d="M59 8.06665L0 36.3L15.7333 43.56V57.2733C11.0133 58.8867 7.86667 63.7267 7.86667 68.5667C7.86667 73.4066 11.0133 78.2466 15.7333 79.86V80.6666L8.65333 97.6067C6.29333 104.867 7.86667 112.933 19.6667 112.933C31.4667 112.933 33.04 104.867 30.68 97.6067L23.6 80.6666C28.32 78.2467 31.4667 74.2133 31.4667 68.5667C31.4667 62.92 28.32 58.8867 23.6 57.2733V47.5933L59 64.5333L118 36.3L59 8.06665ZM93.6133 60.5L58.2133 76.6333L39.3333 67.76V68.5667C39.3333 74.2133 36.9733 79.0533 33.04 83.0867L37.76 94.38V95.1867C38.5467 98.4133 39.3333 101.64 38.5467 104.867C44.0533 107.287 50.3467 108.9 58.2133 108.9C84.1733 108.9 93.6133 92.7666 93.6133 84.7V60.5Z" fill="#F8F8F8" fill-opacity="0.5"/>
</svg>
