<svg width="252" height="255" viewBox="0 0 252 255" fill="none" xmlns="http://www.w3.org/2000/svg">
<path d="M126.212 8.15625C78.6898 8.15625 39.9862 47.4088 39.9862 95.605V198.243C39.9769 210.973 44.9041 223.196 53.7039 232.273C58.0198 236.817 63.1941 240.432 68.9179 242.903C74.6418 245.373 80.7978 246.649 87.0184 246.653C105.077 246.653 119.931 238.892 131.17 223.588C133.365 220.607 135.849 216.264 138.725 211.241C146.23 198.139 156.504 180.202 169.673 171.124C182.298 162.424 192.812 151.478 200.048 139.464C208.278 125.884 212.438 111.127 212.438 95.605C212.438 47.4088 173.759 8.15625 126.212 8.15625ZM173.244 99.5799C171.165 99.5799 169.171 98.7424 167.701 97.2515C166.231 95.7606 165.406 93.7385 165.406 91.6301C165.406 71.9044 147.822 55.8556 126.212 55.8556C104.602 55.8556 87.0184 71.9044 87.0184 91.6301V106.745C100.339 102.849 115.63 103.406 118.51 103.555C122.812 103.596 127.02 104.834 130.677 107.133C134.333 109.431 137.298 112.703 139.248 116.592C141.198 120.481 142.059 124.838 141.737 129.189C141.415 133.539 139.922 137.717 137.421 141.267C137.274 141.471 137.122 141.67 136.956 141.863C128.848 151.304 119.319 164.461 118.114 169.191C117.55 171.19 116.237 172.886 114.455 173.915C112.673 174.944 110.565 175.224 108.582 174.695C106.599 174.166 104.9 172.87 103.848 171.085C102.796 169.3 102.476 167.168 102.956 165.147C105.655 154.742 121.048 136.229 124.835 131.782C125.615 130.583 126.06 129.192 126.123 127.758C126.186 126.323 125.864 124.897 125.192 123.633C124.521 122.369 123.524 121.313 122.307 120.577C121.091 119.841 119.701 119.453 118.285 119.455H117.854C109.721 119.012 95.3716 119.852 87.0184 123.584V151.254C87.0184 153.363 86.1926 155.385 84.7225 156.876C83.2525 158.367 81.2587 159.204 79.1797 159.204C77.1008 159.204 75.107 158.367 73.6369 156.876C72.1669 155.385 71.341 153.363 71.341 151.254V91.6301C71.341 63.1347 95.9546 39.9558 126.212 39.9558C156.469 39.9558 181.083 63.1347 181.083 91.6301C181.083 93.7385 180.257 95.7606 178.787 97.2515C177.317 98.7424 175.323 99.5799 173.244 99.5799Z" fill="url(#paint0_linear_107_147)" fill-opacity="0.35"/>
<defs>
<linearGradient id="paint0_linear_107_147" x1="126.212" y1="8.15625" x2="126.212" y2="246.653" gradientUnits="userSpaceOnUse">
<stop offset="0.395833" stop-color="#F8F8F8"/>
<stop offset="1" stop-color="#F8F8F8" stop-opacity="0"/>
</linearGradient>
</defs>
</svg>
