<svg width="47" height="45" viewBox="0 0 47 45" fill="none" xmlns="http://www.w3.org/2000/svg">
<path d="M39.1667 33.75H35.25V17.3438L23.5 24.375L11.75 17.3438V33.75H7.83335V11.25H10.1834L23.5 19.2188L36.8167 11.25H39.1667V33.75ZM39.1667 7.5H7.83335C5.6596 7.5 3.91669 9.16875 3.91669 11.25V33.75C3.91669 34.7446 4.32933 35.6984 5.06385 36.4016C5.79837 37.1049 6.79459 37.5 7.83335 37.5H39.1667C40.2055 37.5 41.2017 37.1049 41.9362 36.4016C42.6707 35.6984 43.0834 34.7446 43.0834 33.75V11.25C43.0834 10.2554 42.6707 9.30161 41.9362 8.59835C41.2017 7.89509 40.2055 7.5 39.1667 7.5Z" fill="#096970"/>
</svg>
