<svg width="196" height="244" viewBox="0 0 196 244" fill="none" xmlns="http://www.w3.org/2000/svg">
<g clip-path="url(#clip0_107_166)">
<path d="M92.5583 0V38.5785H103.074V0H92.5574H92.5583ZM49.6192 11.5934L41.0037 19.1103L58.758 50.704L67.3687 43.1869L49.6192 11.5934ZM146.011 11.5934L128.262 43.1871L136.874 50.7042L154.628 19.1103L146.012 11.5934H146.011ZM97.8139 49.1339C72.0893 49.1339 51.2357 68.5997 51.2357 92.6156L77.6993 192.484H117.933L144.394 92.6156C144.394 68.6001 123.542 49.1339 97.8163 49.1339H97.8139ZM14.1623 60.7119L10.5694 73.0325L39.6468 86.2242L43.253 73.9095L14.1616 60.7119H14.1623ZM181.468 60.7119L152.376 73.9105L155.97 86.2266L185.062 73.0327L181.468 60.7119ZM41.8483 117.035L11.9497 127.028L14.6625 139.676L44.5611 129.697L41.8488 117.035H41.8483ZM153.782 117.035L151.071 129.697L180.97 139.674L183.68 127.026L153.782 117.034V117.035ZM77.1127 199.764V217.124H118.52V199.767H77.1128L77.1127 199.764ZM77.1127 225.753V243.113H118.52V225.756H77.1128L77.1127 225.753Z" fill="url(#paint0_linear_107_166)" fill-opacity="0.5"/>
</g>
<defs>
<linearGradient id="paint0_linear_107_166" x1="97.8156" y1="0" x2="97.8156" y2="243.113" gradientUnits="userSpaceOnUse">
<stop stop-color="#F8F8F8"/>
<stop offset="1" stop-color="#F8F8F8" stop-opacity="0"/>
</linearGradient>
<clipPath id="clip0_107_166">
<rect x="0.267334" width="195.097" height="243.113" rx="20" fill="white"/>
</clipPath>
</defs>
</svg>
