<svg width="39" height="40" viewBox="0 0 39 40" fill="none" xmlns="http://www.w3.org/2000/svg">
<path d="M19.5 0C14.2082 0 13.5428 0.025 11.4636 0.12C9.38438 0.22 7.96819 0.555 6.7275 1.05C5.4261 1.55205 4.24732 2.33957 3.27356 3.3575C2.28169 4.35674 1.51395 5.5656 1.02375 6.9C0.541125 8.17 0.212063 9.625 0.117 11.75C0.024375 13.8875 0 14.5675 0 20.0025C0 25.4325 0.024375 26.1125 0.117 28.245C0.2145 30.375 0.541125 31.8275 1.02375 33.1C1.52344 34.415 2.18888 35.53 3.27356 36.6425C4.35581 37.755 5.44294 38.44 6.72506 38.95C7.96819 39.445 9.38194 39.7825 11.4587 39.88C13.5403 39.975 14.2033 40 19.5 40C24.7967 40 25.4573 39.975 27.5389 39.88C29.6132 39.78 31.0343 39.445 32.2749 38.95C33.5755 38.4477 34.7534 37.6602 35.7264 36.6425C36.8111 35.53 37.4766 34.415 37.9762 33.1C38.4564 31.8275 38.7855 30.375 38.883 28.245C38.9756 26.1125 39 25.4325 39 20C39 14.5675 38.9756 13.8875 38.883 11.7525C38.7855 9.625 38.4564 8.17 37.9762 6.9C37.4861 5.56556 36.7184 4.35669 35.7264 3.3575C34.753 2.33919 33.5741 1.55161 32.2725 1.05C31.0294 0.555 29.6108 0.2175 27.5364 0.12C25.4548 0.025 24.7943 0 19.4951 0H19.5024H19.5ZM17.7523 3.605H19.5024C24.7089 3.605 25.3256 3.6225 27.3804 3.72C29.2817 3.8075 30.3152 4.135 31.0026 4.4075C31.9117 4.77 32.5626 5.205 33.2451 5.905C33.9276 6.605 34.3493 7.27 34.7027 8.205C34.9708 8.9075 35.2877 9.9675 35.373 11.9175C35.4681 14.025 35.4876 14.6575 35.4876 19.995C35.4876 25.3325 35.4681 25.9675 35.373 28.075C35.2877 30.025 34.9684 31.0825 34.7027 31.7875C34.3901 32.6559 33.8911 33.4411 33.2426 34.085C32.5601 34.785 31.9118 35.2175 31.0001 35.58C30.3176 35.855 29.2841 36.18 27.3804 36.27C25.3256 36.365 24.7089 36.3875 19.5024 36.3875C14.2959 36.3875 13.6768 36.365 11.622 36.27C9.72075 36.18 8.68969 35.855 8.00231 35.58C7.15528 35.2598 6.38899 34.7489 5.75981 34.085C5.11083 33.4401 4.61107 32.6541 4.29731 31.785C4.03163 31.0825 3.71231 30.0225 3.627 28.0725C3.53438 25.965 3.51488 25.3325 3.51488 19.99C3.51488 14.65 3.53438 14.02 3.627 11.9125C3.71475 9.9625 4.03163 8.9025 4.29975 8.1975C4.65319 7.265 5.07731 6.5975 5.75981 5.8975C6.44231 5.1975 7.09069 4.765 8.00231 4.4025C8.68969 4.1275 9.72075 3.8025 11.622 3.7125C13.4209 3.6275 14.118 3.6025 17.7523 3.6V3.605ZM29.9106 6.925C29.6033 6.925 29.299 6.98708 29.0151 7.10769C28.7312 7.2283 28.4732 7.40508 28.2559 7.62794C28.0386 7.8508 27.8663 8.11538 27.7487 8.40656C27.6311 8.69774 27.5706 9.00983 27.5706 9.325C27.5706 9.64017 27.6311 9.95226 27.7487 10.2434C27.8663 10.5346 28.0386 10.7992 28.2559 11.0221C28.4732 11.2449 28.7312 11.4217 29.0151 11.5423C29.299 11.6629 29.6033 11.725 29.9106 11.725C30.5312 11.725 31.1264 11.4721 31.5652 11.0221C32.004 10.572 32.2506 9.96152 32.2506 9.325C32.2506 8.68848 32.004 8.07803 31.5652 7.62794C31.1264 7.17786 30.5312 6.925 29.9106 6.925ZM19.5024 9.73C18.1742 9.70875 16.8551 9.95871 15.6219 10.4654C14.3887 10.972 13.2661 11.7252 12.3195 12.6811C11.3729 13.6369 10.6211 14.7764 10.1079 16.0331C9.59478 17.2899 9.33051 18.6388 9.33051 20.0012C9.33051 21.3637 9.59478 22.7126 10.1079 23.9693C10.6211 25.2261 11.3729 26.3656 12.3195 27.3214C13.2661 28.2773 14.3887 29.0305 15.6219 29.5371C16.8551 30.0438 18.1742 30.2938 19.5024 30.2725C22.1314 30.2304 24.6388 29.1298 26.4834 27.2081C28.328 25.2865 29.3619 22.6979 29.3619 20.0012C29.3619 17.3046 28.328 14.716 26.4834 12.7944C24.6388 10.8727 22.1314 9.77207 19.5024 9.73ZM19.5024 13.3325C21.2266 13.3325 22.8801 14.035 24.0992 15.2854C25.3183 16.5358 26.0033 18.2317 26.0033 20C26.0033 21.7683 25.3183 23.4642 24.0992 24.7146C22.8801 25.965 21.2266 26.6675 19.5024 26.6675C17.7783 26.6675 16.1248 25.965 14.9057 24.7146C13.6865 23.4642 13.0016 21.7683 13.0016 20C13.0016 18.2317 13.6865 16.5358 14.9057 15.2854C16.1248 14.035 17.7783 13.3325 19.5024 13.3325Z" fill="#096970"/>
</svg>
