<svg width="39" height="38" viewBox="0 0 39 38" fill="none" xmlns="http://www.w3.org/2000/svg">
<g clip-path="url(#clip0_3_14)">
<path fill-rule="evenodd" clip-rule="evenodd" d="M28.2994 22.7715C27.8151 22.5356 25.441 21.3988 24.999 21.2404C24.557 21.0837 24.2353 21.0061 23.9119 21.4779C23.5901 21.9466 22.6655 23.0074 22.3844 23.3209C22.1016 23.636 21.8205 23.674 21.3379 23.4397C20.8552 23.2022 19.2985 22.7066 17.4541 21.1043C16.0193 19.8566 15.0491 18.316 14.768 17.8442C14.4869 17.3739 14.7371 17.119 14.9793 16.8847C15.197 16.6741 15.4619 16.3353 15.704 16.0614C15.9461 15.7859 16.0258 15.5895 16.1866 15.2744C16.3491 14.9609 16.2679 14.687 16.146 14.4511C16.0257 14.2152 15.0605 11.8988 14.6575 10.9567C14.2659 10.0399 13.8678 10.165 13.572 10.1492C13.2893 10.1365 12.9675 10.1334 12.6458 10.1334C12.324 10.1334 11.8007 10.2505 11.3587 10.7224C10.9151 11.1926 9.66875 12.331 9.66875 14.6474C9.66875 16.9623 11.3977 19.1995 11.6399 19.5146C11.882 19.8281 15.0443 24.5813 19.8884 26.619C21.0421 27.1035 21.9408 27.3933 22.6411 27.6086C23.7981 27.968 24.8511 27.9174 25.6831 27.7954C26.6094 27.6609 28.5399 26.657 28.9429 25.5582C29.3443 24.4594 29.3442 23.5173 29.224 23.3209C29.1037 23.1246 28.782 23.0074 28.2977 22.7715H28.2994ZM19.4886 34.4929H19.4821C16.6049 34.4935 13.7806 33.7398 11.3051 32.3111L10.7201 31.9723L4.63938 33.5271L6.26275 27.7511L5.88088 27.1589C4.27235 24.6642 3.4211 21.7768 3.4255 18.8306C3.42875 10.2014 10.634 3.18094 19.4951 3.18094C23.7851 3.18094 27.8184 4.81177 30.8506 7.76944C32.3462 9.22069 33.5317 10.9465 34.3383 12.847C35.145 14.7476 35.5569 16.7851 35.5501 18.8417C35.5469 27.4709 28.3416 34.4929 19.4886 34.4929ZM33.1581 5.52269C31.3677 3.76665 29.2374 2.37429 26.8906 1.42629C24.5439 0.478291 22.0274 -0.00649602 19.487 2.29194e-05C8.83675 2.29194e-05 0.16575 8.44711 0.1625 18.829C0.157565 22.133 1.04711 25.3799 2.74137 28.2419L0 38L10.244 35.3812C13.0778 36.8855 16.2534 37.6738 19.4805 37.6739H19.4886C30.1389 37.6739 38.8099 29.2268 38.8131 18.8433C38.821 16.369 38.3252 13.9177 37.3546 11.6312C36.3839 9.3448 34.9576 7.26858 33.1581 5.52269Z" fill="#096970"/>
</g>
<defs>
<clipPath id="clip0_3_14">
<rect width="39" height="38" fill="white"/>
</clipPath>
</defs>
</svg>
